<svg xmlns="http://www.w3.org/2000/svg" overflow="hidden" style="line-height: normal;" fill="none" fill-rule="evenodd" stroke="none" stroke-linecap="square" stroke-miterlimit="10" viewBox="0 0 365760 205740" preserveAspectRatio="none meet" width="100%" height="100%" xmlns:xlink="http://www.w3.org/1999/xlink" version="1.1"><rect fill="#ffffff" fill-opacity="0" width="100%" height="100%"/><g id="g5de54d3a9c_8_28" transform="translate(0) scale(1)"><defs cursor="default"/><g><path fill="#fff" fill-opacity="1" d="M 0 0 L 365760 0 L 365760 205740 L 0 205740 Z"/><g id="g5de54d3a9c_8_28-bg"><g><g><path fill="#e6b8af" fill-opacity="1" d="M 0 0 L 365760 0 L 365760 205740 L 0 205740 Z"/></g></g></g><g id="g5de54d3a9c_8_31"><g><g><path fill="#eeeeee" fill-opacity="1" stroke="#595959" stroke-linecap="butt" stroke-linejoin="round" stroke-miterlimit="8" stroke-opacity="1" stroke-width="381" d="M 21301 66264.5 L 79609 66264.5 L 79609 124573 L 21301 124573 Z"/></g></g></g><g id="g5de54d3a9c_8_32"><g><g><path fill="#eeeeee" fill-opacity="1" stroke="#595959" stroke-linecap="butt" stroke-linejoin="round" stroke-miterlimit="8" stroke-opacity="1" stroke-width="381" d="M 110833 66265 L 169141 66265 L 169141 124573 L 110833 124573 Z"/></g></g></g><g id="g5de54d3a9c_8_33"><g><g><path fill="#eeeeee" fill-opacity="1" stroke="#595959" stroke-linecap="butt" stroke-linejoin="round" stroke-miterlimit="8" stroke-opacity="1" stroke-width="381" d="M 200365 66265 L 258673 66265 L 258673 124573 L 200365 124573 Z"/></g></g></g><g id="g5de54d3a9c_8_34"><g><g><path fill="#eeeeee" fill-opacity="1" stroke="#595959" stroke-linecap="butt" stroke-linejoin="round" stroke-miterlimit="8" stroke-opacity="1" stroke-width="381" d="M 289944 66265 L 348252 66265 L 348252 124573 L 289944 124573 Z"/></g></g></g><g id="g5de54d3a9c_8_35"><g><g><path d="M 14587.5 127375 L 78499.5 127375 L 78499.5 144187 L 14587.5 144187 Z"/></g><g><g direction="ltr"><g transform="matrix(381, 0, 0, 381, 18244.5, 131032)"><g pointer-events="none"><g id="g5de54d3a9c_8_35-paragraph-0"><g><g class="sketchy-text-background" visibility="visible"/><g/><g class="sketchy-text-content" visibility="visible"><g class="sketchy-text-content-text" transform="translate(0 23.04)"><text style="font-family:docs-Comfortaa;font-size:24px;fill:#000000;white-space:pre;" x="39.92px" y="0px" text-rendering="geometricPrecision">Maya</text></g></g></g></g></g></g></g><path d="M 18244.5 131032 L 74842.5 131032 L 74842.5 142081 L 18244.5 142081 Z"/></g></g></g><g id="g5de54d3a9c_8_36"><g><g><path d="M 113323 127375 L 166651 127375 L 166651 144187 L 113323 144187 Z"/></g><g><g direction="ltr"><g transform="matrix(381, 0, 0, 381, 116980, 131032)"><g pointer-events="none"><g id="g5de54d3a9c_8_36-paragraph-0"><g><g class="sketchy-text-background" visibility="visible"/><g/><g class="sketchy-text-content" visibility="visible"><g class="sketchy-text-content-text" transform="translate(0 23.04)"><text style="font-family:docs-Comfortaa;font-size:24px;fill:#000000;white-space:pre;" x="19.29px" y="0px" text-rendering="geometricPrecision">Anissa</text></g></g></g></g></g></g></g><path d="M 116980 131032 L 162994 131032 L 162994 142081 L 116980 142081 Z"/></g></g></g><g id="g5de54d3a9c_8_37"><g><g><path d="M 200889 127375 L 264801 127375 L 264801 144187 L 200889 144187 Z"/></g><g><g direction="ltr"><g transform="matrix(381, 0, 0, 381, 204546, 131032)"><g pointer-events="none"><g id="g5de54d3a9c_8_37-paragraph-0"><g><g class="sketchy-text-background" visibility="visible"/><g/><g class="sketchy-text-content" visibility="visible"><g class="sketchy-text-content-text" transform="translate(0 23.04)"><text style="font-family:docs-Comfortaa;font-size:24px;fill:#000000;white-space:pre;" x="23.44px" y="0px" text-rendering="geometricPrecision">Estefani</text></g></g></g></g></g></g></g><path d="M 204546 131032 L 261144 131032 L 261144 142081 L 204546 142081 Z"/></g></g></g><g id="g5de54d3a9c_8_38"><g><g><path d="M 292387 139671 L 341839 139683 L 341839 195483 L 292387 195471 Z"/></g><g><g direction="ltr"><g transform="matrix(381, 0.0924533, 0, 381, 296044, 143328)"><g pointer-events="none"><g id="g5de54d3a9c_8_38-paragraph-0"><g><g class="sketchy-text-background" visibility="visible"/><g/><g class="sketchy-text-content" visibility="visible"><g class="sketchy-text-content-text" transform="translate(0 15.36)"><text style="font-family:Arial;font-size:16px;fill:#000000;white-space:pre;" x="29.52px" y="0px" text-rendering="geometricPrecision">Hi</text><text style="font-family:Arial;font-size:16px;fill:#000000;white-space:pre;" x="49.07px" y="0px" text-rendering="geometricPrecision">:)</text><text style="font-family:Arial;font-size:16px;fill:#000000;white-space:pre;" x="63.3px" y="0px" text-rendering="geometricPrecision">Im</text></g></g></g></g><g id="g5de54d3a9c_8_38-paragraph-1" transform="translate(0 19)"><g><g class="sketchy-text-background" visibility="visible"/><g/><g class="sketchy-text-content" visibility="visible"><g class="sketchy-text-content-text" transform="translate(0 15.36)"><text style="font-family:Arial;font-size:16px;fill:#000000;white-space:pre;" x="4.16px" y="0px" text-rendering="geometricPrecision">Cynthia,</text><text style="font-family:Arial;font-size:16px;fill:#000000;white-space:pre;" x="67.31px" y="0px" text-rendering="geometricPrecision">im</text><text style="font-family:Arial;font-size:16px;fill:#000000;white-space:pre;" x="88.64px" y="0px" text-rendering="geometricPrecision">16</text></g></g></g></g><g id="g5de54d3a9c_8_38-paragraph-2" transform="translate(0 38)"><g><g class="sketchy-text-background" visibility="visible"/><g/><g class="sketchy-text-content" visibility="visible"><g class="sketchy-text-content-text" transform="translate(0 15.36)"><text style="font-family:Arial;font-size:16px;fill:#000000;white-space:pre;" x="13.11px" y="0px" text-rendering="geometricPrecision">Years</text><text style="font-family:Arial;font-size:16px;fill:#000000;white-space:pre;" x="57.89px" y="0px" text-rendering="geometricPrecision">old&lt;3</text></g></g></g></g></g></g></g><path d="M 296044 143328 L 338182 143339 L 338182 165056 L 296044 165045 Z"/></g></g></g><g id="g5de54d3a9c_8_39"><g><g><path d="M 5060 166732 L 88028 166732 L 88028 183544 L 5060 183544 Z"/></g><g><g direction="ltr"><g transform="matrix(381, 0, 0, 381, 8717, 170389)"><g pointer-events="none"><g id="g5de54d3a9c_8_39-paragraph-0"><g><g class="sketchy-text-background" visibility="visible"/><g/><g class="sketchy-text-content" visibility="visible"><g class="sketchy-text-content-text" transform="translate(0 23.04)"><text style="font-family:docs-Comfortaa;font-size:24px;fill:#000000;font-weight:700;white-space:pre;" x="0px" y="0px" text-rendering="geometricPrecision">Girls</text><text style="font-family:docs-Comfortaa;font-size:24px;fill:#000000;font-weight:700;white-space:pre;" x="64.82px" y="0px" text-rendering="geometricPrecision">Who</text><text style="font-family:docs-Comfortaa;font-size:24px;fill:#000000;font-weight:700;white-space:pre;" x="126.95px" y="0px" text-rendering="geometricPrecision">Code:</text></g><g class="sketchy-text-content-decoration" transform="translate(0 23.04)"><rect fill="#000000" fill-opacity="1" x="0" y="1.56" width="197.29" height="2.16"/></g></g></g></g></g></g></g><path d="M 8717 170389 L 84371 170389 L 84371 181438 L 8717 181438 Z"/></g></g></g><g id="g5de54d3a9c_8_40"><g><g><g><g><g><clipPath id="e13_83"><path d="M 108031 63463 L 171943 63463 L 171943 127375 L 108031 127375 Z"/></clipPath><g clip-path="url(#e13_83)"><image fill="#000000" transform="matrix(160.583, 0, 0, 160.583, 108031, 63463)" preserveAspectRatio="none meet" x="0" y="0" width="398" height="398" xlink:href="https://lh5.googleusercontent.com/19Y4FFhKQVrO0xImOFI1kU5u6EN-8z1TpFPQDABkv4Z-YIuEiyryZ2F9hgAmj3QXkCcPezGHjoWOcudzlu1SIA4R0LuF0ddNmzQ1qDGY4jcTEzaS4WYvKg3KmJN2k436nuAGIRwvfNU"/></g></g></g></g></g></g></g><g id="g5de54d3a9c_8_41"><g><g><g><g><g><clipPath id="e13_96"><path d="M 197587 63463.4 L 261499 63463.4 L 261499 127375 L 197587 127375 Z"/></clipPath><g clip-path="url(#e13_96)"><image fill="#000000" transform="matrix(160.583, 0, 0, 160.581, 197587, 63463.4)" preserveAspectRatio="none meet" x="0" y="0" width="398" height="398" xlink:href="https://lh5.googleusercontent.com/6-fdTPuiCeFPU_3u5aHIJ8LhnLPeMjjDo8bBkCXofi3DJxX45BrCYGAkH7WZNRHfF0nOJFzPzocupUf8E68YIchPWMRZtGlRF89vBOvpeXzkw_yJABqjDL-q2nRt5vbkkb5pRh6h_4w"/></g></g></g></g></g></g></g><g id="g5de54d3a9c_8_42"><g><g><g><g><g><clipPath id="e13_109"><path d="M 289944 67515 L 348252 67515 L 348252 123322 L 289944 123322 Z"/></clipPath><g clip-path="url(#e13_109)"><image fill="#000000" transform="matrix(147.242, 0, 0, 140.219, 289944, 67515)" preserveAspectRatio="none meet" x="0" y="0" width="396" height="398" xlink:href="https://lh4.googleusercontent.com/eXtdhCAscbao1reRfz1tjzCo4A6q0FHfn61hJVKJdJUyBMzGktjqlznbFkDhw075gNpYYvPDzaoM6Z_744NaGsN3UXd6a2MSY6EOn-RGkFPWQ02Kt9ilUpgXbDFEJNZkMYdj5pAbrYg"/></g></g></g></g></g></g></g><g id="g5de54d3a9c_8_43"><g><g><path d="M 111095 139671 L 169403 139671 L 169403 179463 L 111095 179463 Z"/></g><g><g direction="ltr"><g transform="matrix(381, 0, 0, 381, 114752, 143328)"><g pointer-events="none"><g id="g5de54d3a9c_8_43-paragraph-0"><g><g class="sketchy-text-background" visibility="visible"/><g/><g class="sketchy-text-content" visibility="visible"><g class="sketchy-text-content-text" transform="translate(0 15.36)"><text style="font-family:Arial;font-size:16px;fill:#000000;white-space:pre;" x="5.13px" y="0px" text-rendering="geometricPrecision">Hi</text><text style="font-family:Arial;font-size:16px;fill:#000000;white-space:pre;" x="24.68px" y="0px" text-rendering="geometricPrecision">I’m</text><text style="font-family:Arial;font-size:16px;fill:#000000;white-space:pre;" x="50.46px" y="0px" text-rendering="geometricPrecision">Anissa,</text><text style="font-family:Arial;font-size:16px;fill:#000000;white-space:pre;" x="107.38px" y="0px" text-rendering="geometricPrecision">I’m</text></g></g></g></g><g id="g5de54d3a9c_8_43-paragraph-1" transform="translate(0 19)"><g><g class="sketchy-text-background" visibility="visible"/><g/><g class="sketchy-text-content" visibility="visible"><g class="sketchy-text-content-text" transform="translate(0 15.36)"><text style="font-family:Arial;font-size:16px;fill:#000000;white-space:pre;" x="16.22px" y="0px" text-rendering="geometricPrecision">15</text><text style="font-family:Arial;font-size:16px;fill:#000000;white-space:pre;" x="38.47px" y="0px" text-rendering="geometricPrecision">years</text><text style="font-family:Arial;font-size:16px;fill:#000000;white-space:pre;" x="82.05px" y="0px" text-rendering="geometricPrecision">old</text><text style="font-family:Arial;font-size:16px;fill:#000000;white-space:pre;" x="107.85px" y="0px" text-rendering="geometricPrecision">:)</text></g></g></g></g></g></g></g><path d="M 114752 143328 L 165746 143328 L 165746 157806 L 114752 157806 Z"/></g></g></g><g id="g5de54d3a9c_8_44"><g><g><path d="M 195463 140042 L 263575 140042 L 263575 163994 L 195463 163994 Z"/></g><g><g direction="ltr"><g transform="matrix(381, 0, 0, 381, 199120, 143699)"><g pointer-events="none"><g id="g5de54d3a9c_8_44-paragraph-0"><g><g class="sketchy-text-background" visibility="visible"/><g/><g class="sketchy-text-content" visibility="visible"><g class="sketchy-text-content-text" transform="translate(0 15.36)"><text style="font-family:Arial;font-size:16px;fill:#000000;white-space:pre;" x="6.42px" y="0px" text-rendering="geometricPrecision">Hey</text><text style="font-family:Arial;font-size:16px;fill:#000000;white-space:pre;" x="39.32px" y="0px" text-rendering="geometricPrecision">I’m</text><text style="font-family:Arial;font-size:16px;fill:#000000;white-space:pre;" x="65.1px" y="0px" text-rendering="geometricPrecision">Estefani,</text><text style="font-family:Arial;font-size:16px;fill:#000000;white-space:pre;" x="131.82px" y="0px" text-rendering="geometricPrecision">I’m</text></g></g></g><g transform="translate(0 19)"><g class="sketchy-text-background" visibility="visible"/><g/><g class="sketchy-text-content" visibility="visible"><g class="sketchy-text-content-text" transform="translate(0 15.36)"><text style="font-family:Arial;font-size:16px;fill:#000000;white-space:pre;" x="36.2px" y="0px" text-rendering="geometricPrecision">18</text><text style="font-family:Arial;font-size:16px;fill:#000000;white-space:pre;" x="58.45px" y="0px" text-rendering="geometricPrecision">years</text><text style="font-family:Arial;font-size:16px;fill:#000000;white-space:pre;" x="102.03px" y="0px" text-rendering="geometricPrecision">old</text></g></g></g></g></g></g></g><path d="M 199120 143699 L 259918 143699 L 259918 158177 L 199120 158177 Z"/></g></g></g><g id="g5de54d3a9c_8_45"><g><g><path d="M 5060 179463 L 248252 179463 L 248252 203415 L 5060 203415 Z"/></g><g><g direction="ltr"><g transform="matrix(381, 0, 0, 381, 8717, 183120)"><g pointer-events="none"><g id="g5de54d3a9c_8_45-paragraph-0"><g><g class="sketchy-text-background" visibility="visible"/><g/><g class="sketchy-text-content" visibility="visible"><g class="sketchy-text-content-text" transform="translate(0 17.92)"><text style="font-family:Arial;font-size:18.666666666666664px;fill:#000000;white-space:pre;" x="0px" y="0px" text-rendering="geometricPrecision">We</text><text style="font-family:Arial;font-size:18.666666666666664px;fill:#000000;white-space:pre;" x="32.84px" y="0px" text-rendering="geometricPrecision">currently</text><text style="font-family:Arial;font-size:18.666666666666664px;fill:#000000;white-space:pre;" x="109.57px" y="0px" text-rendering="geometricPrecision">attend</text><text style="font-family:Arial;font-size:18.666666666666664px;fill:#000000;white-space:pre;" x="166.63px" y="0px" text-rendering="geometricPrecision">the</text><text style="font-family:Arial;font-size:18.666666666666664px;fill:#000000;white-space:pre;" x="197.75px" y="0px" text-rendering="geometricPrecision">Girls</text><text style="font-family:Arial;font-size:18.666666666666664px;fill:#000000;white-space:pre;" x="241.28px" y="0px" text-rendering="geometricPrecision">Who</text><text style="font-family:Arial;font-size:18.666666666666664px;fill:#000000;white-space:pre;" x="284.83px" y="0px" text-rendering="geometricPrecision">Code</text><text style="font-family:Arial;font-size:18.666666666666664px;fill:#000000;white-space:pre;" x="334.63px" y="0px" text-rendering="geometricPrecision">Summer</text><text style="font-family:Arial;font-size:18.666666666666664px;fill:#000000;white-space:pre;" x="410.31px" y="0px" text-rendering="geometricPrecision">Immersion</text><text style="font-family:Arial;font-size:18.666666666666664px;fill:#000000;white-space:pre;" x="502.58px" y="0px" text-rendering="geometricPrecision">Program</text></g></g></g><g transform="translate(0 22)"><g class="sketchy-text-background" visibility="visible"/><g/><g class="sketchy-text-content" visibility="visible"><g class="sketchy-text-content-text" transform="translate(0 17.92)"><text style="font-family:Arial;font-size:18.666666666666664px;fill:#000000;white-space:pre;" x="0px" y="0px" text-rendering="geometricPrecision">that’s</text><text style="font-family:Arial;font-size:18.666666666666664px;fill:#000000;white-space:pre;" x="49.44px" y="0px" text-rendering="geometricPrecision">been</text><text style="font-family:Arial;font-size:18.666666666666664px;fill:#000000;white-space:pre;" x="96.14px" y="0px" text-rendering="geometricPrecision">going</text><text style="font-family:Arial;font-size:18.666666666666664px;fill:#000000;white-space:pre;" x="146.99px" y="0px" text-rendering="geometricPrecision">on</text><text style="font-family:Arial;font-size:18.666666666666664px;fill:#000000;white-space:pre;" x="172.93px" y="0px" text-rendering="geometricPrecision">for</text><text style="font-family:Arial;font-size:18.666666666666664px;fill:#000000;white-space:pre;" x="199.88px" y="0px" text-rendering="geometricPrecision">almost</text><text style="font-family:Arial;font-size:18.666666666666664px;fill:#000000;white-space:pre;" x="260.02px" y="0px" text-rendering="geometricPrecision">7</text><text style="font-family:Arial;font-size:18.666666666666664px;fill:#000000;white-space:pre;" x="275.58px" y="0px" text-rendering="geometricPrecision">weeks</text><text style="font-family:Arial;font-size:18.666666666666664px;fill:#000000;white-space:pre;" x="333.66px" y="0px" text-rendering="geometricPrecision">now.</text></g></g></g></g></g></g></g><path d="M 8717 183120 L 244595 183120 L 244595 199884 L 8717 199884 Z"/></g></g></g><g id="g5de54d3a9c_8_46"><g><g><g><g><g><clipPath id="e13_146"><path d="M 21301 66265 L 79609 66265 L 79609 124573 L 21301 124573 Z"/></clipPath><g clip-path="url(#e13_146)"><image fill="#000000" transform="matrix(196.323, 0, 0, 140.841, 21301, 66265)" preserveAspectRatio="none meet" x="0" y="0" width="297" height="414" xlink:href="https://lh5.googleusercontent.com/b1gbJSq96IbxnhY5XhG_koRB6x2mxms-Ew9KA4IzxCYN_0esvq1hvK627ubixWsjI6r5A0ot-A2N6pQccugfzf9UdTH75uSE9WfyMndBThKx07V1HmiXJAVR6cFJsxM3NqAWXhSUl9c"/></g></g></g></g></g></g></g><g id="g5de54d3a9c_8_47"><g><g><path d="M 17390 139671 L 75698 139671 L 75698 163623 L 17390 163623 Z"/></g><g><g direction="ltr"><g transform="matrix(381, 0, 0, 381, 21047, 143328)"><g pointer-events="none"><g id="g5de54d3a9c_8_47-paragraph-0"><g><g class="sketchy-text-background" visibility="visible"/><g/><g class="sketchy-text-content" visibility="visible"><g class="sketchy-text-content-text" transform="translate(0 15.36)"><text style="font-family:Arial;font-size:16px;fill:#000000;white-space:pre;" x="46.47px" y="0px" text-rendering="geometricPrecision">Hello.</text></g></g></g></g></g></g></g><path d="M 21047 143328 L 72041 143328 L 72041 150567 L 21047 150567 Z"/></g></g></g><g id="g5de54d3a9c_8_48"><g><g><path d="M 289944 127375 L 343272 127375 L 343272 140827 L 289944 140827 Z"/></g><g><g direction="ltr"><g transform="matrix(381, 0, 0, 381, 293601, 131032)"><g pointer-events="none"><g id="g5de54d3a9c_8_48-paragraph-0"><g><g class="sketchy-text-background" visibility="visible"/><g/><g class="sketchy-text-content" visibility="visible"><g class="sketchy-text-content-text" transform="translate(0 23.04)"><text style="font-family:docs-Comfortaa;font-size:24px;fill:#000000;white-space:pre;" x="11.89px" y="0px" text-rendering="geometricPrecision">Cynthia</text></g></g></g></g></g></g></g><path d="M 293601 131032 L 339615 131032 L 339615 142081 L 293601 142081 Z"/></g></g></g><g id="g5de54d3a9c_8_107"><g><g><path stroke="#595959" stroke-linecap="butt" stroke-linejoin="round" stroke-miterlimit="8" stroke-opacity="1" stroke-width="381" d="M 0 31633 L 369996 34441"/></g></g></g><g id="g5de54d3a9c_8_108"><g><g><path fill="#ea9999" fill-opacity="1" stroke="#cc0000" stroke-linecap="butt" stroke-linejoin="round" stroke-miterlimit="8" stroke-opacity="1" stroke-width="381" d="M 13498 10096.1 C 13498 8548.52 14752.5 7294 16300.1 7294 L 52179.9 7294 C 53727.5 7294 54982 8548.52 54982 10096.1 L 54982 21303.9 C 54982 22851.5 53727.5 24106 52179.9 24106 L 16300.1 24106 C 14752.5 24106 13498 22851.5 13498 21303.9 Z"/></g><g><g direction="ltr"><g transform="matrix(381, 0, 0, 381, 17975.7, 10175.5)"><g pointer-events="none"><g id="g5de54d3a9c_8_108-paragraph-0"><g><g class="sketchy-text-background" visibility="visible"/><g/><g class="sketchy-text-content" visibility="visible"><g class="sketchy-text-content-text" transform="translate(0 23.04)"><text style="font-family:docs-Comfortaa;font-size:24px;fill:#0097A7;font-weight:700;white-space:pre;" x="5.43px" y="0px" text-rendering="geometricPrecision">Home</text></g><g class="sketchy-text-content-decoration" transform="translate(0 23.04)"><rect fill="#0097a7" fill-opacity="1" x="5.43347" y="1.56" width="74.51" height="2.16"/></g><g class="sketchy-text-content-decoration" transform="translate(0 23.04)"><a opacity="0" fill="#000000" pointer-events="visiblePainted" stroke="#000000" target="_blank" xlink:href="#slide=id.g5de54d3a9c_8_28" rel="noreferrer"><rect fill="white" fill-opacity="0" x="5.43347" y="-23.04" width="74.51" height="28.8"/></a></g></g></g></g></g></g></g><path d="M 17975.7 10175.5 L 50504.3 10175.5 L 50504.3 21224.5 L 17975.7 21224.5 Z"/></g></g></g><g id="g5de54d3a9c_8_109"><g><g><path fill="#ea9999" fill-opacity="1" stroke="#cc0000" stroke-linecap="butt" stroke-linejoin="round" stroke-miterlimit="8" stroke-opacity="1" stroke-width="381" d="M 72898 10096.1 C 72898 8548.52 74152.5 7294 75700.1 7294 L 138208 7294 C 139755 7294 141010 8548.52 141010 10096.1 L 141010 21303.9 C 141010 22851.5 139755 24106 138208 24106 L 75700.1 24106 C 74152.5 24106 72898 22851.5 72898 21303.9 Z"/></g><g><g direction="ltr"><g transform="matrix(381, 0, 0, 381, 77375.7, 11509)"><g pointer-events="none"><g id="g5de54d3a9c_8_109-paragraph-0"><g><g class="sketchy-text-background" visibility="visible"/><g/><g class="sketchy-text-content" visibility="visible"><g class="sketchy-text-content-text" transform="translate(0 17.92)"><text style="font-family:docs-Comfortaa;font-size:18.666666666666664px;fill:#0097A7;font-weight:700;white-space:pre;" x="8.23px" y="0px" text-rendering="geometricPrecision">Coloring</text><text style="font-family:docs-Comfortaa;font-size:18.666666666666664px;fill:#0097A7;font-weight:700;white-space:pre;" x="97.73px" y="0px" text-rendering="geometricPrecision">Book</text></g><g class="sketchy-text-content-decoration" transform="translate(0 17.92)"><rect fill="#0097a7" fill-opacity="1" x="8.22835" y="1.21333" width="138.81" height="1.68"/></g><g class="sketchy-text-content-decoration" transform="translate(0 17.92)"><a opacity="0" fill="#000000" pointer-events="visiblePainted" stroke="#000000" target="_blank" xlink:href="#slide=id.g5de54d3a9c_0_8" rel="noreferrer"><rect fill="white" fill-opacity="0" x="8.22835" y="-17.92" width="138.81" height="22.4"/></a></g></g></g></g></g></g></g><path d="M 77375.7 11509 L 136532 11509 L 136532 19891 L 77375.7 19891 Z"/></g></g></g><g id="g5de54d3a9c_8_110"><g><g><path fill="#ea9999" fill-opacity="1" stroke="#cc0000" stroke-linecap="butt" stroke-linejoin="round" stroke-miterlimit="8" stroke-opacity="1" stroke-width="381" d="M 158926 10096.1 C 158926 8548.52 160180 7294 161728 7294 L 209451 7294 C 210999 7294 212254 8548.52 212254 10096.1 L 212254 21303.9 C 212254 22851.5 210999 24106 209451 24106 L 161728 24106 C 160180 24106 158926 22851.5 158926 21303.9 Z"/></g><g><g direction="ltr"><g transform="matrix(381, 0, 0, 381, 163403, 10175.5)"><g pointer-events="none"><g id="g5de54d3a9c_8_110-paragraph-0"><g><g class="sketchy-text-background" visibility="visible"/><g/><g class="sketchy-text-content" visibility="visible"><g class="sketchy-text-content-text" transform="translate(0 23.04)"><text style="font-family:docs-Comfortaa;font-size:24px;fill:#0097A7;font-weight:700;white-space:pre;" x="14.7px" y="0px" text-rendering="geometricPrecision">Gallery</text></g><g class="sketchy-text-content-decoration" transform="translate(0 23.04)"><rect fill="#0097a7" fill-opacity="1" x="14.6968" y="1.56" width="87.07" height="2.16"/></g><g class="sketchy-text-content-decoration" transform="translate(0 23.04)"><a opacity="0" fill="#000000" pointer-events="visiblePainted" stroke="#000000" target="_blank" xlink:href="#slide=id.g5de54d3a9c_0_11" rel="noreferrer"><rect fill="white" fill-opacity="0" x="14.6968" y="-23.04" width="87.07" height="28.8"/></a></g></g></g></g></g></g></g><path d="M 163403 10175.5 L 207776 10175.5 L 207776 21224.5 L 163403 21224.5 Z"/></g></g></g><g id="g5de54d3a9c_8_111"><g><g><path fill="#ea9999" fill-opacity="1" stroke="#cc0000" stroke-linecap="butt" stroke-linejoin="round" stroke-miterlimit="8" stroke-opacity="1" stroke-width="381" d="M 230170 10096.1 C 230170 8548.52 231425 7294 232972 7294 L 276820 7294 C 278367 7294 279622 8548.52 279622 10096.1 L 279622 21303.9 C 279622 22851.5 278367 24106 276820 24106 L 232972 24106 C 231425 24106 230170 22851.5 230170 21303.9 Z"/></g><g><g direction="ltr"><g transform="matrix(381, 0, 0, 381, 234648, 10175.5)"><g pointer-events="none"><g id="g5de54d3a9c_8_111-paragraph-0"><g><g class="sketchy-text-background" visibility="visible"/><g/><g class="sketchy-text-content" visibility="visible"><g class="sketchy-text-content-text" transform="translate(0 23.04)"><text style="font-family:docs-Comfortaa;font-size:24px;fill:#0097A7;font-weight:700;white-space:pre;" x="20.16px" y="0px" text-rendering="geometricPrecision">Shop</text></g><g class="sketchy-text-content-decoration" transform="translate(0 23.04)"><rect fill="#0097a7" fill-opacity="1" x="20.1602" y="1.56" width="65.97" height="2.16"/></g><g class="sketchy-text-content-decoration" transform="translate(0 23.04)"><a opacity="0" fill="#000000" pointer-events="visiblePainted" stroke="#000000" target="_blank" xlink:href="#slide=id.g5de54d3a9c_0_14" rel="noreferrer"><rect fill="white" fill-opacity="0" x="20.1602" y="-23.04" width="65.97" height="28.8"/></a></g></g></g></g></g></g></g><path d="M 234648 10175.5 L 275144 10175.5 L 275144 21224.5 L 234648 21224.5 Z"/></g></g></g><g id="g5de54d3a9c_8_112"><g><g><path fill="#ea9999" fill-opacity="1" stroke="#cc0000" stroke-linecap="butt" stroke-linejoin="round" stroke-miterlimit="8" stroke-opacity="1" stroke-width="381" d="M 302810 10096.1 C 302810 8548.52 304065 7294 305612 7294 L 349460 7294 C 351007 7294 352262 8548.52 352262 10096.1 L 352262 21303.9 C 352262 22851.5 351007 24106 349460 24106 L 305612 24106 C 304065 24106 302810 22851.5 302810 21303.9 Z"/></g><g><g direction="ltr"><g transform="matrix(381, 0, 0, 381, 307288, 10175.5)"><g pointer-events="none"><g id="g5de54d3a9c_8_112-paragraph-0"><g><g class="sketchy-text-background" visibility="visible"/><g/><g class="sketchy-text-content" visibility="visible"><g class="sketchy-text-content-text" transform="translate(0 23.04)"><text style="font-family:docs-Comfortaa;font-size:24px;fill:#0097A7;font-weight:700;white-space:pre;" x="15.18px" y="0px" text-rendering="geometricPrecision">About</text></g><g class="sketchy-text-content-decoration" transform="translate(0 23.04)"><rect fill="#0097a7" fill-opacity="1" x="15.1802" y="1.56" width="75.93" height="2.16"/></g><g class="sketchy-text-content-decoration" transform="translate(0 23.04)"><a opacity="0" fill="#000000" pointer-events="visiblePainted" stroke="#000000" target="_blank" xlink:href="#slide=id.g5de54d3a9c_8_28" rel="noreferrer"><rect fill="white" fill-opacity="0" x="15.1802" y="-23.04" width="75.93" height="28.8"/></a></g></g></g></g></g></g></g><path d="M 307288 10175.5 L 347784 10175.5 L 347784 21224.5 L 307288 21224.5 Z"/></g></g></g></g></g></svg>